<mxfile host="65bd71144e">
    <diagram name="Page-1" id="2YBvvXClWsGukQMizWep">
        <mxGraphModel dx="739" dy="446" grid="1" gridSize="10" guides="1" tooltips="1" connect="1" arrows="1" fold="1" page="1" pageScale="1" pageWidth="850" pageHeight="1100" math="0" shadow="0">
            <root>
                <mxCell id="0"/>
                <mxCell id="1" parent="0"/>
                <mxCell id="16" value="&lt;b&gt;User Logs in&lt;br&gt;&lt;/b&gt;" style="shape=umlFrame;whiteSpace=wrap;html=1;pointerEvents=0;width=200;height=30;" vertex="1" parent="1">
                    <mxGeometry x="550" y="720" width="660" height="590" as="geometry"/>
                </mxCell>
                <mxCell id="ar3UEvt62J7_QRy36t76-14" value="&lt;div&gt;join&lt;/div&gt;&lt;div&gt;Battle&lt;br&gt;&lt;/div&gt;" style="shape=umlFrame;whiteSpace=wrap;html=1;pointerEvents=0;" parent="1" vertex="1">
                    <mxGeometry x="500" width="530" height="370" as="geometry"/>
                </mxCell>
                <mxCell id="ar3UEvt62J7_QRy36t76-5" value="&lt;div&gt;create &lt;br&gt;&lt;/div&gt;&lt;div&gt;Battle&lt;br&gt;&lt;/div&gt;" style="shape=umlFrame;whiteSpace=wrap;html=1;pointerEvents=0;" parent="1" vertex="1">
                    <mxGeometry x="20" width="480" height="370" as="geometry"/>
                </mxCell>
                <mxCell id="ar3UEvt62J7_QRy36t76-15" value="&lt;div&gt;if minGroupSize&amp;gt;=1&lt;/div&gt;&lt;div&gt;&amp;amp;&amp;amp;&lt;/div&gt;&lt;div&gt;Student wants group&lt;br&gt;&lt;/div&gt;" style="shape=umlFrame;whiteSpace=wrap;html=1;pointerEvents=0;width=100;height=80;" parent="1" vertex="1">
                    <mxGeometry x="500" y="180" width="530" height="100" as="geometry"/>
                </mxCell>
                <mxCell id="aM9ryv3xv72pqoxQDRHE-5" value="System" style="shape=umlLifeline;perimeter=lifelinePerimeter;whiteSpace=wrap;html=1;container=0;dropTarget=0;collapsible=0;recursiveResize=0;outlineConnect=0;portConstraint=eastwest;newEdgeStyle={&quot;edgeStyle&quot;:&quot;elbowEdgeStyle&quot;,&quot;elbow&quot;:&quot;vertical&quot;,&quot;curved&quot;:0,&quot;rounded&quot;:0};" parent="1" vertex="1">
                    <mxGeometry x="220" y="40" width="100" height="300" as="geometry"/>
                </mxCell>
                <mxCell id="aM9ryv3xv72pqoxQDRHE-6" value="" style="html=1;points=[];perimeter=orthogonalPerimeter;outlineConnect=0;targetShapes=umlLifeline;portConstraint=eastwest;newEdgeStyle={&quot;edgeStyle&quot;:&quot;elbowEdgeStyle&quot;,&quot;elbow&quot;:&quot;vertical&quot;,&quot;curved&quot;:0,&quot;rounded&quot;:0};" parent="aM9ryv3xv72pqoxQDRHE-5" vertex="1">
                    <mxGeometry x="45" y="80" width="10" height="100" as="geometry"/>
                </mxCell>
                <mxCell id="aM9ryv3xv72pqoxQDRHE-7" value="&lt;div&gt;createBattle(codekata,&amp;nbsp;&lt;/div&gt;&lt;div&gt;deadlines, group rules)&lt;/div&gt;" style="html=1;verticalAlign=bottom;endArrow=block;edgeStyle=elbowEdgeStyle;elbow=horizontal;curved=0;rounded=0;" parent="1" edge="1">
                    <mxGeometry relative="1" as="geometry">
                        <mxPoint x="95" y="126" as="sourcePoint"/>
                        <Array as="points">
                            <mxPoint x="180" y="126"/>
                        </Array>
                        <mxPoint x="265" y="126" as="targetPoint"/>
                    </mxGeometry>
                </mxCell>
                <mxCell id="aM9ryv3xv72pqoxQDRHE-8" value="ok" style="html=1;verticalAlign=bottom;endArrow=open;dashed=1;endSize=8;edgeStyle=elbowEdgeStyle;elbow=vertical;curved=0;rounded=0;" parent="1" edge="1">
                    <mxGeometry relative="1" as="geometry">
                        <mxPoint x="100" y="150" as="targetPoint"/>
                        <Array as="points">
                            <mxPoint x="195" y="150"/>
                        </Array>
                        <mxPoint x="270" y="150" as="sourcePoint"/>
                    </mxGeometry>
                </mxCell>
                <mxCell id="ar3UEvt62J7_QRy36t76-1" value="student" style="shape=umlLifeline;perimeter=lifelinePerimeter;whiteSpace=wrap;html=1;container=1;dropTarget=0;collapsible=0;recursiveResize=0;outlineConnect=0;portConstraint=eastwest;newEdgeStyle={&quot;curved&quot;:0,&quot;rounded&quot;:0};" parent="1" vertex="1">
                    <mxGeometry x="375" y="40" width="100" height="300" as="geometry"/>
                </mxCell>
                <mxCell id="ar3UEvt62J7_QRy36t76-2" value="notifyNewBattle()" style="endArrow=open;html=1;rounded=0;endFill=0;" parent="1" source="aM9ryv3xv72pqoxQDRHE-6" target="6" edge="1">
                    <mxGeometry x="0.0387" y="10" width="50" height="50" relative="1" as="geometry">
                        <mxPoint x="280" y="170" as="sourcePoint"/>
                        <mxPoint x="450" y="230" as="targetPoint"/>
                        <Array as="points">
                            <mxPoint x="310" y="170"/>
                        </Array>
                        <mxPoint x="1" as="offset"/>
                    </mxGeometry>
                </mxCell>
                <mxCell id="ar3UEvt62J7_QRy36t76-7" value="system" style="shape=umlLifeline;perimeter=lifelinePerimeter;whiteSpace=wrap;html=1;container=1;dropTarget=0;collapsible=0;recursiveResize=0;outlineConnect=0;portConstraint=eastwest;newEdgeStyle={&quot;curved&quot;:0,&quot;rounded&quot;:0};" parent="1" vertex="1">
                    <mxGeometry x="720" y="40" width="100" height="300" as="geometry"/>
                </mxCell>
                <mxCell id="ar3UEvt62J7_QRy36t76-10" value="" style="html=1;points=[];perimeter=orthogonalPerimeter;outlineConnect=0;targetShapes=umlLifeline;portConstraint=eastwest;newEdgeStyle={&quot;edgeStyle&quot;:&quot;elbowEdgeStyle&quot;,&quot;elbow&quot;:&quot;vertical&quot;,&quot;curved&quot;:0,&quot;rounded&quot;:0};" parent="ar3UEvt62J7_QRy36t76-7" vertex="1">
                    <mxGeometry x="45" y="80" width="10" height="220" as="geometry"/>
                </mxCell>
                <mxCell id="ar3UEvt62J7_QRy36t76-8" value="student" style="shape=umlLifeline;perimeter=lifelinePerimeter;whiteSpace=wrap;html=1;container=1;dropTarget=0;collapsible=0;recursiveResize=0;outlineConnect=0;portConstraint=eastwest;newEdgeStyle={&quot;curved&quot;:0,&quot;rounded&quot;:0};" parent="1" vertex="1">
                    <mxGeometry x="870" y="40" width="100" height="300" as="geometry"/>
                </mxCell>
                <mxCell id="ar3UEvt62J7_QRy36t76-11" value="" style="html=1;points=[];perimeter=orthogonalPerimeter;outlineConnect=0;targetShapes=umlLifeline;portConstraint=eastwest;newEdgeStyle={&quot;edgeStyle&quot;:&quot;elbowEdgeStyle&quot;,&quot;elbow&quot;:&quot;vertical&quot;,&quot;curved&quot;:0,&quot;rounded&quot;:0};" parent="ar3UEvt62J7_QRy36t76-8" vertex="1">
                    <mxGeometry x="45" y="160" width="10" height="60" as="geometry"/>
                </mxCell>
                <mxCell id="ar3UEvt62J7_QRy36t76-12" value="joinBattle()" style="endArrow=classic;html=1;rounded=0;" parent="1" edge="1">
                    <mxGeometry width="50" height="50" relative="1" as="geometry">
                        <mxPoint x="619.5" y="140" as="sourcePoint"/>
                        <mxPoint x="769.5" y="140" as="targetPoint"/>
                    </mxGeometry>
                </mxCell>
                <mxCell id="ar3UEvt62J7_QRy36t76-13" value="showGroupSizeRules" style="endArrow=none;dashed=1;html=1;rounded=0;startArrow=open;startFill=0;" parent="1" edge="1">
                    <mxGeometry x="-0.0714" y="5" width="50" height="50" relative="1" as="geometry">
                        <mxPoint x="625" y="170" as="sourcePoint"/>
                        <mxPoint x="765" y="170" as="targetPoint"/>
                        <mxPoint as="offset"/>
                    </mxGeometry>
                </mxCell>
                <mxCell id="ar3UEvt62J7_QRy36t76-16" value="sendInvite(list(studentsID))" style="endArrow=classic;html=1;rounded=0;entryX=0.5;entryY=0.409;entryDx=0;entryDy=0;entryPerimeter=0;" parent="1" source="ar3UEvt62J7_QRy36t76-44" target="ar3UEvt62J7_QRy36t76-10" edge="1">
                    <mxGeometry x="-0.0345" y="10" width="50" height="50" relative="1" as="geometry">
                        <mxPoint x="630.5" y="210" as="sourcePoint"/>
                        <mxPoint x="760" y="210" as="targetPoint"/>
                        <mxPoint as="offset"/>
                    </mxGeometry>
                </mxCell>
                <mxCell id="ar3UEvt62J7_QRy36t76-17" value="relayInvite()" style="endArrow=classic;html=1;rounded=0;" parent="1" edge="1">
                    <mxGeometry x="-0.3571" y="20" width="50" height="50" relative="1" as="geometry">
                        <mxPoint x="780" y="220" as="sourcePoint"/>
                        <mxPoint x="920" y="220" as="targetPoint"/>
                        <Array as="points">
                            <mxPoint x="820" y="220"/>
                        </Array>
                        <mxPoint as="offset"/>
                    </mxGeometry>
                </mxCell>
                <mxCell id="ar3UEvt62J7_QRy36t76-19" value="groupJoinedConfirmation" style="endArrow=none;dashed=1;html=1;rounded=0;startArrow=open;startFill=0;" parent="1" edge="1">
                    <mxGeometry y="20" width="50" height="50" relative="1" as="geometry">
                        <mxPoint x="630" y="250" as="sourcePoint"/>
                        <mxPoint x="770" y="250" as="targetPoint"/>
                        <mxPoint as="offset"/>
                    </mxGeometry>
                </mxCell>
                <mxCell id="ar3UEvt62J7_QRy36t76-20" value="&lt;div&gt;groupSize=1&lt;/div&gt;&lt;div&gt;or&lt;/div&gt;&lt;div&gt;Student want to be alone&lt;br&gt;&lt;/div&gt;" style="rounded=1;whiteSpace=wrap;html=1;" parent="1" vertex="1">
                    <mxGeometry x="500" y="280" width="90" height="70" as="geometry"/>
                </mxCell>
                <mxCell id="ar3UEvt62J7_QRy36t76-21" value="joinAlone()" style="endArrow=classic;html=1;rounded=0;" parent="1" edge="1">
                    <mxGeometry width="50" height="50" relative="1" as="geometry">
                        <mxPoint x="620" y="300" as="sourcePoint"/>
                        <mxPoint x="765.5" y="300" as="targetPoint"/>
                    </mxGeometry>
                </mxCell>
                <mxCell id="ar3UEvt62J7_QRy36t76-22" value="joinConfirmation" style="endArrow=none;dashed=1;html=1;rounded=0;startArrow=open;startFill=0;" parent="1" target="ar3UEvt62J7_QRy36t76-10" edge="1">
                    <mxGeometry width="50" height="50" relative="1" as="geometry">
                        <mxPoint x="630" y="330" as="sourcePoint"/>
                        <mxPoint x="760" y="330" as="targetPoint"/>
                    </mxGeometry>
                </mxCell>
                <mxCell id="ar3UEvt62J7_QRy36t76-23" value="&lt;div&gt;close&lt;/div&gt;&lt;div&gt;Tournament&lt;br&gt;&lt;/div&gt;" style="shape=umlFrame;whiteSpace=wrap;html=1;pointerEvents=0;width=70;height=40;" parent="1" vertex="1">
                    <mxGeometry x="20" y="370" width="480" height="280" as="geometry"/>
                </mxCell>
                <mxCell id="ar3UEvt62J7_QRy36t76-25" value="System" style="shape=umlLifeline;perimeter=lifelinePerimeter;whiteSpace=wrap;html=1;container=1;dropTarget=0;collapsible=0;recursiveResize=0;outlineConnect=0;portConstraint=eastwest;newEdgeStyle={&quot;curved&quot;:0,&quot;rounded&quot;:0};" parent="1" vertex="1">
                    <mxGeometry x="230" y="400" width="100" height="230" as="geometry"/>
                </mxCell>
                <mxCell id="ar3UEvt62J7_QRy36t76-26" value="Student" style="shape=umlLifeline;perimeter=lifelinePerimeter;whiteSpace=wrap;html=1;container=1;dropTarget=0;collapsible=0;recursiveResize=0;outlineConnect=0;portConstraint=eastwest;newEdgeStyle={&quot;curved&quot;:0,&quot;rounded&quot;:0};" parent="1" vertex="1">
                    <mxGeometry x="395.31" y="400" width="100" height="230" as="geometry"/>
                </mxCell>
                <mxCell id="ar3UEvt62J7_QRy36t76-28" value="&lt;font style=&quot;font-size: 10px;&quot;&gt;closeTrmnt(tournamenId)&lt;/font&gt;" style="html=1;verticalAlign=bottom;endArrow=block;curved=0;rounded=0;" parent="1" source="ar3UEvt62J7_QRy36t76-46" edge="1">
                    <mxGeometry x="0.0028" relative="1" as="geometry">
                        <mxPoint x="137.76" y="483" as="sourcePoint"/>
                        <mxPoint x="275.29999999999995" y="483" as="targetPoint"/>
                        <mxPoint as="offset"/>
                    </mxGeometry>
                </mxCell>
                <mxCell id="ar3UEvt62J7_QRy36t76-29" value="confirmClosure" style="html=1;verticalAlign=bottom;endArrow=open;dashed=1;endSize=8;curved=0;rounded=0;exitX=0;exitY=1;exitDx=0;exitDy=-5;" parent="1" source="ar3UEvt62J7_QRy36t76-27" target="ar3UEvt62J7_QRy36t76-46" edge="1">
                    <mxGeometry relative="1" as="geometry">
                        <mxPoint x="150" y="535" as="targetPoint"/>
                    </mxGeometry>
                </mxCell>
                <mxCell id="ar3UEvt62J7_QRy36t76-36" value="notifyEndTourn(tournamentID)" style="html=1;verticalAlign=bottom;startArrow=none;startFill=0;endArrow=open;startSize=8;curved=0;rounded=0;endFill=0;" parent="1" source="ar3UEvt62J7_QRy36t76-27" edge="1">
                    <mxGeometry width="60" relative="1" as="geometry">
                        <mxPoint x="300.00000000000006" y="500" as="sourcePoint"/>
                        <mxPoint x="440.31" y="500" as="targetPoint"/>
                    </mxGeometry>
                </mxCell>
                <mxCell id="ar3UEvt62J7_QRy36t76-37" value="&lt;div&gt;create&lt;/div&gt;&lt;div&gt;Repository&lt;br&gt;&lt;/div&gt;" style="shape=umlFrame;whiteSpace=wrap;html=1;pointerEvents=0;width=70;height=40;" parent="1" vertex="1">
                    <mxGeometry x="510" y="380" width="510" height="300" as="geometry"/>
                </mxCell>
                <mxCell id="ar3UEvt62J7_QRy36t76-38" value="System" style="shape=umlLifeline;perimeter=lifelinePerimeter;whiteSpace=wrap;html=1;container=1;dropTarget=0;collapsible=0;recursiveResize=0;outlineConnect=0;portConstraint=eastwest;newEdgeStyle={&quot;curved&quot;:0,&quot;rounded&quot;:0};" parent="1" vertex="1">
                    <mxGeometry x="600" y="400" width="100" height="260" as="geometry"/>
                </mxCell>
                <mxCell id="ar3UEvt62J7_QRy36t76-47" value="" style="html=1;points=[[0,0,0,0,5],[0,1,0,0,-5],[1,0,0,0,5],[1,1,0,0,-5]];perimeter=orthogonalPerimeter;outlineConnect=0;targetShapes=umlLifeline;portConstraint=eastwest;newEdgeStyle={&quot;curved&quot;:0,&quot;rounded&quot;:0};" parent="ar3UEvt62J7_QRy36t76-38" vertex="1">
                    <mxGeometry x="45" y="60" width="10" height="150" as="geometry"/>
                </mxCell>
                <mxCell id="ar3UEvt62J7_QRy36t76-39" value="Github" style="shape=umlLifeline;perimeter=lifelinePerimeter;whiteSpace=wrap;html=1;container=1;dropTarget=0;collapsible=0;recursiveResize=0;outlineConnect=0;portConstraint=eastwest;newEdgeStyle={&quot;curved&quot;:0,&quot;rounded&quot;:0};" parent="1" vertex="1">
                    <mxGeometry x="740" y="400" width="100" height="250" as="geometry"/>
                </mxCell>
                <mxCell id="ar3UEvt62J7_QRy36t76-51" value="" style="html=1;points=[[0,0,0,0,5],[0,1,0,0,-5],[1,0,0,0,5],[1,1,0,0,-5]];perimeter=orthogonalPerimeter;outlineConnect=0;targetShapes=umlLifeline;portConstraint=eastwest;newEdgeStyle={&quot;curved&quot;:0,&quot;rounded&quot;:0};" parent="ar3UEvt62J7_QRy36t76-39" vertex="1">
                    <mxGeometry x="50" y="70" width="10" height="80" as="geometry"/>
                </mxCell>
                <mxCell id="ar3UEvt62J7_QRy36t76-40" value="Student" style="shape=umlLifeline;perimeter=lifelinePerimeter;whiteSpace=wrap;html=1;container=1;dropTarget=0;collapsible=0;recursiveResize=0;outlineConnect=0;portConstraint=eastwest;newEdgeStyle={&quot;curved&quot;:0,&quot;rounded&quot;:0};" parent="1" vertex="1">
                    <mxGeometry x="880" y="400" width="100" height="240" as="geometry"/>
                </mxCell>
                <mxCell id="ar3UEvt62J7_QRy36t76-41" value="" style="shape=umlLifeline;perimeter=lifelinePerimeter;whiteSpace=wrap;html=1;container=1;dropTarget=0;collapsible=0;recursiveResize=0;outlineConnect=0;portConstraint=eastwest;newEdgeStyle={&quot;curved&quot;:0,&quot;rounded&quot;:0};participant=umlActor;" parent="1" vertex="1">
                    <mxGeometry x="80" y="50" width="20" height="300" as="geometry"/>
                </mxCell>
                <mxCell id="ar3UEvt62J7_QRy36t76-43" value="" style="html=1;points=[[0,0,0,0,5],[0,1,0,0,-5],[1,0,0,0,5],[1,1,0,0,-5]];perimeter=orthogonalPerimeter;outlineConnect=0;targetShapes=umlLifeline;portConstraint=eastwest;newEdgeStyle={&quot;curved&quot;:0,&quot;rounded&quot;:0};" parent="ar3UEvt62J7_QRy36t76-41" vertex="1">
                    <mxGeometry x="5" y="50" width="10" height="80" as="geometry"/>
                </mxCell>
                <mxCell id="ar3UEvt62J7_QRy36t76-42" value="" style="shape=umlLifeline;perimeter=lifelinePerimeter;whiteSpace=wrap;html=1;container=1;dropTarget=0;collapsible=0;recursiveResize=0;outlineConnect=0;portConstraint=eastwest;newEdgeStyle={&quot;curved&quot;:0,&quot;rounded&quot;:0};participant=umlActor;shadow=0;labelBackgroundColor=none;labelBorderColor=none;" parent="1" vertex="1">
                    <mxGeometry x="610" y="35" width="20" height="310" as="geometry"/>
                </mxCell>
                <mxCell id="ar3UEvt62J7_QRy36t76-44" value="" style="html=1;points=[[0,0,0,0,5],[0,1,0,0,-5],[1,0,0,0,5],[1,1,0,0,-5]];perimeter=orthogonalPerimeter;outlineConnect=0;targetShapes=umlLifeline;portConstraint=eastwest;newEdgeStyle={&quot;curved&quot;:0,&quot;rounded&quot;:0};" parent="ar3UEvt62J7_QRy36t76-42" vertex="1">
                    <mxGeometry x="5" y="85" width="10" height="225" as="geometry"/>
                </mxCell>
                <mxCell id="ar3UEvt62J7_QRy36t76-45" value="Educator" style="shape=umlLifeline;perimeter=lifelinePerimeter;whiteSpace=wrap;html=1;container=1;dropTarget=0;collapsible=0;recursiveResize=0;outlineConnect=0;portConstraint=eastwest;newEdgeStyle={&quot;curved&quot;:0,&quot;rounded&quot;:0};participant=umlActor;fontColor=#FFFFFF;" parent="1" vertex="1">
                    <mxGeometry x="115" y="400" width="20" height="220" as="geometry"/>
                </mxCell>
                <mxCell id="ar3UEvt62J7_QRy36t76-46" value="" style="html=1;points=[[0,0,0,0,5],[0,1,0,0,-5],[1,0,0,0,5],[1,1,0,0,-5]];perimeter=orthogonalPerimeter;outlineConnect=0;targetShapes=umlLifeline;portConstraint=eastwest;newEdgeStyle={&quot;curved&quot;:0,&quot;rounded&quot;:0};" parent="ar3UEvt62J7_QRy36t76-45" vertex="1">
                    <mxGeometry x="5" y="70" width="10" height="90" as="geometry"/>
                </mxCell>
                <mxCell id="ar3UEvt62J7_QRy36t76-52" value="createRepo(ckInformation)" style="html=1;verticalAlign=bottom;endArrow=block;curved=0;rounded=0;entryX=0;entryY=0;entryDx=0;entryDy=5;" parent="1" source="ar3UEvt62J7_QRy36t76-47" target="ar3UEvt62J7_QRy36t76-51" edge="1">
                    <mxGeometry relative="1" as="geometry">
                        <mxPoint x="660" y="475" as="sourcePoint"/>
                    </mxGeometry>
                </mxCell>
                <mxCell id="ar3UEvt62J7_QRy36t76-53" value="confirmation" style="html=1;verticalAlign=bottom;endArrow=open;dashed=1;endSize=8;curved=0;rounded=0;exitX=0;exitY=1;exitDx=0;exitDy=-5;" parent="1" target="ar3UEvt62J7_QRy36t76-47" edge="1">
                    <mxGeometry relative="1" as="geometry">
                        <mxPoint x="660" y="530" as="targetPoint"/>
                        <mxPoint x="790" y="530" as="sourcePoint"/>
                    </mxGeometry>
                </mxCell>
                <mxCell id="ar3UEvt62J7_QRy36t76-55" value="&lt;div&gt;view&lt;/div&gt;&lt;div&gt;BattleRanking&lt;br&gt;&lt;/div&gt;" style="shape=umlFrame;whiteSpace=wrap;html=1;pointerEvents=0;width=90;height=50;" parent="1" vertex="1">
                    <mxGeometry x="20" y="720" width="500" height="320" as="geometry"/>
                </mxCell>
                <mxCell id="ar3UEvt62J7_QRy36t76-57" value="" style="shape=umlLifeline;perimeter=lifelinePerimeter;whiteSpace=wrap;html=1;container=1;dropTarget=0;collapsible=0;recursiveResize=0;outlineConnect=0;portConstraint=eastwest;newEdgeStyle={&quot;curved&quot;:0,&quot;rounded&quot;:0};participant=umlActor;size=40;" parent="1" vertex="1">
                    <mxGeometry x="130" y="750" width="20" height="230" as="geometry"/>
                </mxCell>
                <mxCell id="ar3UEvt62J7_QRy36t76-58" value="" style="html=1;points=[[0,0,0,0,5],[0,1,0,0,-5],[1,0,0,0,5],[1,1,0,0,-5]];perimeter=orthogonalPerimeter;outlineConnect=0;targetShapes=umlLifeline;portConstraint=eastwest;newEdgeStyle={&quot;curved&quot;:0,&quot;rounded&quot;:0};" parent="ar3UEvt62J7_QRy36t76-57" vertex="1">
                    <mxGeometry x="5" y="60" width="10" height="80" as="geometry"/>
                </mxCell>
                <mxCell id="4" value="" style="html=1;points=[[0,0,0,0,5],[0,1,0,0,-5],[1,0,0,0,5],[1,1,0,0,-5]];perimeter=orthogonalPerimeter;outlineConnect=0;targetShapes=umlLifeline;portConstraint=eastwest;newEdgeStyle={&quot;curved&quot;:0,&quot;rounded&quot;:0};" parent="1" vertex="1">
                    <mxGeometry x="925" y="540" width="10" height="60" as="geometry"/>
                </mxCell>
                <mxCell id="ar3UEvt62J7_QRy36t76-63" value=":Object" style="shape=umlLifeline;perimeter=lifelinePerimeter;whiteSpace=wrap;html=1;container=1;dropTarget=0;collapsible=0;recursiveResize=0;outlineConnect=0;portConstraint=eastwest;newEdgeStyle={&quot;curved&quot;:0,&quot;rounded&quot;:0};" parent="1" vertex="1">
                    <mxGeometry x="240" y="750" width="100" height="230" as="geometry"/>
                </mxCell>
                <mxCell id="ar3UEvt62J7_QRy36t76-67" value="" style="html=1;points=[[0,0,0,0,5],[0,1,0,0,-5],[1,0,0,0,5],[1,1,0,0,-5]];perimeter=orthogonalPerimeter;outlineConnect=0;targetShapes=umlLifeline;portConstraint=eastwest;newEdgeStyle={&quot;curved&quot;:0,&quot;rounded&quot;:0};" parent="ar3UEvt62J7_QRy36t76-63" vertex="1">
                    <mxGeometry x="40" y="60" width="10" height="80" as="geometry"/>
                </mxCell>
                <mxCell id="ar3UEvt62J7_QRy36t76-68" value="showBatlleRanking(battleID)" style="html=1;verticalAlign=bottom;endArrow=block;curved=0;rounded=0;entryX=0;entryY=0;entryDx=0;entryDy=5;exitX=1;exitY=0;exitDx=0;exitDy=5;exitPerimeter=0;fontSize=10;" parent="1" edge="1">
                    <mxGeometry x="-0.037" relative="1" as="geometry">
                        <mxPoint x="145" y="830" as="sourcePoint"/>
                        <mxPoint x="280.0000000000002" y="830" as="targetPoint"/>
                        <mxPoint as="offset"/>
                    </mxGeometry>
                </mxCell>
                <mxCell id="ar3UEvt62J7_QRy36t76-69" value="battleRanking" style="html=1;verticalAlign=bottom;endArrow=open;dashed=1;endSize=8;curved=0;rounded=0;exitX=0;exitY=1;exitDx=0;exitDy=-5;entryX=0;entryY=1;entryDx=0;entryDy=-5;entryPerimeter=0;" parent="1" edge="1">
                    <mxGeometry relative="1" as="geometry">
                        <mxPoint x="140" y="870" as="targetPoint"/>
                        <mxPoint x="285.0000000000002" y="870" as="sourcePoint"/>
                    </mxGeometry>
                </mxCell>
                <mxCell id="ar3UEvt62J7_QRy36t76-18" value="accept" style="endArrow=none;dashed=1;html=1;rounded=0;startArrow=open;startFill=0;" parent="1" source="ar3UEvt62J7_QRy36t76-10" target="ar3UEvt62J7_QRy36t76-11" edge="1">
                    <mxGeometry width="50" height="50" relative="1" as="geometry">
                        <mxPoint x="620" y="180" as="sourcePoint"/>
                        <mxPoint x="670" y="130" as="targetPoint"/>
                        <Array as="points">
                            <mxPoint x="900" y="250"/>
                        </Array>
                    </mxGeometry>
                </mxCell>
                <mxCell id="ar3UEvt62J7_QRy36t76-54" value="sendRepoLink(url)" style="html=1;verticalAlign=bottom;endArrow=open;curved=0;rounded=0;endFill=0;" parent="1" target="4" edge="1">
                    <mxGeometry width="80" relative="1" as="geometry">
                        <mxPoint x="649.9488888888891" y="570" as="sourcePoint"/>
                        <mxPoint x="920" y="570" as="targetPoint"/>
                    </mxGeometry>
                </mxCell>
                <mxCell id="5" value="" style="html=1;points=[[0,0,0,0,5],[0,1,0,0,-5],[1,0,0,0,5],[1,1,0,0,-5]];perimeter=orthogonalPerimeter;outlineConnect=0;targetShapes=umlLifeline;portConstraint=eastwest;newEdgeStyle={&quot;curved&quot;:0,&quot;rounded&quot;:0};" parent="1" vertex="1">
                    <mxGeometry x="440.31" y="490" width="10" height="40" as="geometry"/>
                </mxCell>
                <mxCell id="6" value="" style="html=1;points=[[0,0,0,0,5],[0,1,0,0,-5],[1,0,0,0,5],[1,1,0,0,-5]];perimeter=orthogonalPerimeter;outlineConnect=0;targetShapes=umlLifeline;portConstraint=eastwest;newEdgeStyle={&quot;curved&quot;:0,&quot;rounded&quot;:0};" parent="1" vertex="1">
                    <mxGeometry x="420" y="150" width="10" height="40" as="geometry"/>
                </mxCell>
                <mxCell id="10" value="Educator&lt;br&gt;" style="text;html=1;align=center;verticalAlign=middle;resizable=0;points=[];autosize=1;strokeColor=none;fillColor=none;" parent="1" vertex="1">
                    <mxGeometry x="100" y="370" width="70" height="30" as="geometry"/>
                </mxCell>
                <mxCell id="12" value="Educator&lt;br&gt;" style="text;html=1;align=center;verticalAlign=middle;resizable=0;points=[];autosize=1;strokeColor=none;fillColor=none;" parent="1" vertex="1">
                    <mxGeometry x="60" y="20" width="70" height="30" as="geometry"/>
                </mxCell>
                <mxCell id="13" value="Student" style="text;html=1;align=center;verticalAlign=middle;resizable=0;points=[];autosize=1;strokeColor=none;fillColor=none;" parent="1" vertex="1">
                    <mxGeometry x="585" y="10" width="70" height="30" as="geometry"/>
                </mxCell>
                <mxCell id="14" value="User" style="text;html=1;align=center;verticalAlign=middle;resizable=0;points=[];autosize=1;strokeColor=none;fillColor=none;" parent="1" vertex="1">
                    <mxGeometry x="115" y="720" width="50" height="30" as="geometry"/>
                </mxCell>
                <mxCell id="15" value="" style="html=1;verticalAlign=bottom;startArrow=none;startFill=0;endArrow=none;startSize=8;curved=0;rounded=0;endFill=0;" parent="1" target="ar3UEvt62J7_QRy36t76-27" edge="1">
                    <mxGeometry width="60" relative="1" as="geometry">
                        <mxPoint x="279.99888888888927" y="509.6600000000001" as="sourcePoint"/>
                        <mxPoint x="425" y="509.6600000000001" as="targetPoint"/>
                    </mxGeometry>
                </mxCell>
                <mxCell id="ar3UEvt62J7_QRy36t76-27" value="" style="html=1;points=[[0,0,0,0,5],[0,1,0,0,-5],[1,0,0,0,5],[1,1,0,0,-5]];perimeter=orthogonalPerimeter;outlineConnect=0;targetShapes=umlLifeline;portConstraint=eastwest;newEdgeStyle={&quot;curved&quot;:0,&quot;rounded&quot;:0};" parent="1" vertex="1">
                    <mxGeometry x="275.3" y="460" width="9.39" height="80" as="geometry"/>
                </mxCell>
                <mxCell id="17" value="" style="shape=umlLifeline;perimeter=lifelinePerimeter;whiteSpace=wrap;html=1;container=1;dropTarget=0;collapsible=0;recursiveResize=0;outlineConnect=0;portConstraint=eastwest;newEdgeStyle={&quot;curved&quot;:0,&quot;rounded&quot;:0};participant=umlActor;" vertex="1" parent="1">
                    <mxGeometry x="630" y="780" width="20" height="510" as="geometry"/>
                </mxCell>
                <mxCell id="18" value="" style="html=1;points=[[0,0,0,0,5],[0,0.5,0,0,0],[0,1,0,0,-5],[1,0,0,0,5],[1,0.5,0,0,0],[1,1,0,0,-5]];perimeter=orthogonalPerimeter;outlineConnect=0;targetShapes=umlLifeline;portConstraint=eastwest;newEdgeStyle={&quot;curved&quot;:0,&quot;rounded&quot;:0};" vertex="1" parent="17">
                    <mxGeometry x="5" y="60" width="10" height="420" as="geometry"/>
                </mxCell>
                <mxCell id="19" value="CodeKataBattle" style="shape=umlLifeline;perimeter=lifelinePerimeter;whiteSpace=wrap;html=1;container=1;dropTarget=0;collapsible=0;recursiveResize=0;outlineConnect=0;portConstraint=eastwest;newEdgeStyle={&quot;curved&quot;:0,&quot;rounded&quot;:0};" vertex="1" parent="1">
                    <mxGeometry x="885" y="780" width="100" height="510" as="geometry"/>
                </mxCell>
                <mxCell id="20" value="" style="html=1;points=[[0,0,0,0,5],[0,1,0,0,-5],[1,0,0,0,5],[1,1,0,0,-5]];perimeter=orthogonalPerimeter;outlineConnect=0;targetShapes=umlLifeline;portConstraint=eastwest;newEdgeStyle={&quot;curved&quot;:0,&quot;rounded&quot;:0};" vertex="1" parent="19">
                    <mxGeometry x="45" y="60" width="10" height="80" as="geometry"/>
                </mxCell>
                <mxCell id="21" value="" style="html=1;points=[[0,0,0,0,5],[0,1,0,0,-5],[1,0,0,0,5],[1,1,0,0,-5]];perimeter=orthogonalPerimeter;outlineConnect=0;targetShapes=umlLifeline;portConstraint=eastwest;newEdgeStyle={&quot;curved&quot;:0,&quot;rounded&quot;:0};" vertex="1" parent="19">
                    <mxGeometry x="55.400000000000006" y="220" width="10" height="30" as="geometry"/>
                </mxCell>
                <mxCell id="22" value="5: checkAuth(email, password)" style="html=1;align=left;spacingLeft=2;endArrow=block;rounded=0;edgeStyle=orthogonalEdgeStyle;curved=0;rounded=0;exitX=0.546;exitY=0.365;exitDx=0;exitDy=0;exitPerimeter=0;entryX=1;entryY=0;entryDx=0;entryDy=5;entryPerimeter=0;" edge="1" parent="19" target="21">
                    <mxGeometry x="-0.2096" relative="1" as="geometry">
                        <mxPoint x="54.99999999999946" y="186.14999999999986" as="sourcePoint"/>
                        <Array as="points">
                            <mxPoint x="90.4" y="186"/>
                            <mxPoint x="90.4" y="225"/>
                        </Array>
                        <mxPoint as="offset"/>
                    </mxGeometry>
                </mxCell>
                <mxCell id="23" style="edgeStyle=orthogonalEdgeStyle;rounded=0;orthogonalLoop=1;jettySize=auto;html=1;curved=0;exitX=1;exitY=0;exitDx=0;exitDy=5;exitPerimeter=0;entryX=0;entryY=0;entryDx=0;entryDy=5;entryPerimeter=0;" edge="1" parent="1" source="18" target="20">
                    <mxGeometry relative="1" as="geometry"/>
                </mxCell>
                <mxCell id="24" value="1: open_application" style="edgeLabel;html=1;align=center;verticalAlign=middle;resizable=0;points=[];" vertex="1" connectable="0" parent="23">
                    <mxGeometry x="-0.1916" relative="1" as="geometry">
                        <mxPoint x="20" y="-5" as="offset"/>
                    </mxGeometry>
                </mxCell>
                <mxCell id="25" style="edgeStyle=orthogonalEdgeStyle;rounded=0;orthogonalLoop=1;jettySize=auto;html=1;curved=0;exitX=0;exitY=1;exitDx=0;exitDy=-5;exitPerimeter=0;dashed=1;endArrow=open;endFill=0;entryX=0.755;entryY=0.263;entryDx=0;entryDy=0;entryPerimeter=0;" edge="1" parent="1" source="20" target="17">
                    <mxGeometry relative="1" as="geometry">
                        <mxPoint x="660" y="915" as="targetPoint"/>
                    </mxGeometry>
                </mxCell>
                <mxCell id="26" value="2: show(LoginForm)" style="edgeLabel;html=1;align=center;verticalAlign=middle;resizable=0;points=[];" vertex="1" connectable="0" parent="25">
                    <mxGeometry x="0.1551" y="1" relative="1" as="geometry">
                        <mxPoint x="15" y="-6" as="offset"/>
                    </mxGeometry>
                </mxCell>
                <mxCell id="27" style="edgeStyle=orthogonalEdgeStyle;rounded=0;orthogonalLoop=1;jettySize=auto;html=1;curved=0;entryX=0.707;entryY=0.325;entryDx=0;entryDy=0;entryPerimeter=0;startArrow=classic;startFill=1;endArrow=none;endFill=0;exitX=0;exitY=0;exitDx=0;exitDy=5;exitPerimeter=0;" edge="1" parent="1" source="32" target="17">
                    <mxGeometry relative="1" as="geometry">
                        <mxPoint x="920" y="945" as="sourcePoint"/>
                    </mxGeometry>
                </mxCell>
                <mxCell id="28" value="3: sendUserAuth(email, password)" style="edgeLabel;html=1;align=center;verticalAlign=middle;resizable=0;points=[];" vertex="1" connectable="0" parent="27">
                    <mxGeometry x="0.0323" relative="1" as="geometry">
                        <mxPoint y="-6" as="offset"/>
                    </mxGeometry>
                </mxCell>
                <mxCell id="30" style="edgeStyle=orthogonalEdgeStyle;rounded=0;orthogonalLoop=1;jettySize=auto;html=1;curved=0;entryX=1.2;entryY=0.66;entryDx=0;entryDy=0;entryPerimeter=0;exitX=-0.062;exitY=0.551;exitDx=0;exitDy=0;exitPerimeter=0;dashed=1;endArrow=open;endFill=0;" edge="1" parent="1" source="32" target="18">
                    <mxGeometry relative="1" as="geometry"/>
                </mxCell>
                <mxCell id="31" value="login confirmation" style="edgeLabel;html=1;align=center;verticalAlign=middle;resizable=0;points=[];" vertex="1" connectable="0" parent="30">
                    <mxGeometry x="0.1431" y="-2" relative="1" as="geometry">
                        <mxPoint as="offset"/>
                    </mxGeometry>
                </mxCell>
                <mxCell id="32" value="" style="html=1;points=[[0,0,0,0,5],[0,1,0,0,-5],[1,0,0,0,5],[1,1,0,0,-5]];perimeter=orthogonalPerimeter;outlineConnect=0;targetShapes=umlLifeline;portConstraint=eastwest;newEdgeStyle={&quot;curved&quot;:0,&quot;rounded&quot;:0};" vertex="1" parent="1">
                    <mxGeometry x="930" y="940" width="10" height="320" as="geometry"/>
                </mxCell>
                <mxCell id="33" value="" style="endArrow=none;dashed=1;html=1;rounded=0;entryX=1.006;entryY=0.517;entryDx=0;entryDy=0;entryPerimeter=0;exitX=0.002;exitY=0.508;exitDx=0;exitDy=0;exitPerimeter=0;" edge="1" parent="1" source="29" target="29">
                    <mxGeometry width="50" height="50" relative="1" as="geometry">
                        <mxPoint x="620" y="1100" as="sourcePoint"/>
                        <mxPoint x="670" y="1050" as="targetPoint"/>
                    </mxGeometry>
                </mxCell>
                <mxCell id="34" style="edgeStyle=orthogonalEdgeStyle;rounded=0;orthogonalLoop=1;jettySize=auto;html=1;curved=0;entryX=1.248;entryY=0.657;entryDx=0;entryDy=0;entryPerimeter=0;exitX=-0.062;exitY=0.551;exitDx=0;exitDy=0;exitPerimeter=0;dashed=1;endArrow=open;endFill=0;" edge="1" parent="1">
                    <mxGeometry relative="1" as="geometry">
                        <mxPoint x="930" y="1210" as="sourcePoint"/>
                        <mxPoint x="648" y="1210" as="targetPoint"/>
                    </mxGeometry>
                </mxCell>
                <mxCell id="35" value="show error" style="edgeLabel;html=1;align=center;verticalAlign=middle;resizable=0;points=[];" vertex="1" connectable="0" parent="34">
                    <mxGeometry x="0.4228" y="-3" relative="1" as="geometry">
                        <mxPoint x="50" as="offset"/>
                    </mxGeometry>
                </mxCell>
                <mxCell id="36" style="edgeStyle=orthogonalEdgeStyle;rounded=0;orthogonalLoop=1;jettySize=auto;html=1;curved=0;entryX=1.248;entryY=0.657;entryDx=0;entryDy=0;entryPerimeter=0;exitX=-0.062;exitY=0.551;exitDx=0;exitDy=0;exitPerimeter=0;dashed=1;endArrow=open;endFill=0;" edge="1" parent="1">
                    <mxGeometry relative="1" as="geometry">
                        <mxPoint x="927" y="1240" as="sourcePoint"/>
                        <mxPoint x="645" y="1240" as="targetPoint"/>
                    </mxGeometry>
                </mxCell>
                <mxCell id="37" value="10: show(LoginForm)" style="edgeLabel;html=1;align=center;verticalAlign=middle;resizable=0;points=[];" vertex="1" connectable="0" parent="36">
                    <mxGeometry x="0.2405" y="1" relative="1" as="geometry">
                        <mxPoint x="25" as="offset"/>
                    </mxGeometry>
                </mxCell>
                <mxCell id="38" value="User" style="text;html=1;align=center;verticalAlign=middle;resizable=0;points=[];autosize=1;strokeColor=none;fillColor=none;" vertex="1" parent="1">
                    <mxGeometry x="615" y="750" width="50" height="30" as="geometry"/>
                </mxCell>
                <mxCell id="29" value="&lt;b&gt;alt authenticationOK==true&lt;br&gt;&lt;/b&gt;" style="shape=umlFrame;whiteSpace=wrap;html=1;pointerEvents=0;width=200;height=30;" vertex="1" parent="1">
                    <mxGeometry x="620" y="1040" width="370" height="250" as="geometry"/>
                </mxCell>
            </root>
        </mxGraphModel>
    </diagram>
</mxfile>